<?xml version="1.0" standalone="no"?><!DOCTYPE svg PUBLIC "-//W3C//DTD SVG 1.1//EN" "http://www.w3.org/Graphics/SVG/1.1/DTD/svg11.dtd"><svg t="1580700965483" class="icon" viewBox="0 0 1024 1024" version="1.1" xmlns="http://www.w3.org/2000/svg" p-id="2161" xmlns:xlink="http://www.w3.org/1999/xlink" width="128" height="128"><defs><style type="text/css"></style></defs><path d="M788.014 36.477c43.366 10.446 51.693 53.833 51.693 53.833l160.823 804.749c0 0 9.726 21.954-5.159 39.315-18.038 21.039-51.199 7.973-51.199 7.973l-341.11-124.853-147.783 159.454c0 0-14.299 15.201-29.562 13.502-8.842-0.982-17.637-16.285-17.637-16.285l-59.424-211.215-313.456-83.714c0 0-11.197 3.97-16.386-21.377-5.193-25.344 8.941-36.921 8.941-36.921l666.601-552.977c0 0 41.55-44.027 93.669-31.486v0zM768.178 97.076l-329.918 603.709c0 0-14.989 22.836-19.953 45.169-4.957 22.337 3.722 43.421 3.722 43.421l12.688 76.734c0 0 4.881 30.608 17.294 31.398 12.407 0.795 26.332-21.868 26.332-21.868l78.844-101.121c0 0 24.428-29.947 32.563-47.989 8.641-19.177 15.426-37.705 15.426-37.705l163.002-591.754zM768.178 97.076z" p-id="2162"></path></svg>